<?xml version="1.0" encoding="UTF-8"?>
<svg width="49px" height="72px" viewBox="0 0 49 72" version="1.1" xmlns="http://www.w3.org/2000/svg" xmlns:xlink="http://www.w3.org/1999/xlink">
    <!-- Generator: sketchtool 59.1 (101010) - https://sketch.com -->
    <title>F7DD309B-8AAF-4EC2-8066-0D6561DD4F16</title>
    <desc>Created with sketchtool.</desc>
    <g id="Page-1" stroke="none" stroke-width="1" fill="none" fill-rule="evenodd">
        <g id="GLOWOASIS-D-Home-dev" transform="translate(-1145.000000, -1049.000000)">
            <g id="Group-22" transform="translate(1147.387003, 1051.310306)">
                <g id="noun_formula_1307758" transform="translate(0.000000, 9.500000)" fill="#E1B6A5" fill-rule="nonzero" stroke="#FFFFFF">
                    <path d="M44.6723564,24.3588713 L35.1952673,8.118 L38.340495,2.72873267 L33.6681188,0 L30.5090891,5.41281188 L14.6757822,5.41281188 L11.5175644,0 L6.84194059,2.72710891 L9.9879802,8.11881188 L0.515762376,24.3588713 L9.9879802,40.5940594 L6.84275248,45.9857624 L11.5151287,48.7128713 L14.6733465,43.3008713 L30.5066535,43.3008713 L33.6648713,48.7128713 L38.340495,45.9857624 L35.1952673,40.5973069 L44.6723564,24.3588713 Z M30.5090891,37.8872475 L14.6757822,37.8872475 L6.78429703,24.3588713 L14.6757822,10.8248119 L30.5090891,10.8248119 L38.4038218,24.3588713 L30.5090891,37.8872475 Z" id="Shape"></path>
                </g>
                <circle id="Oval" stroke="#E1B6A5" stroke-width="4" cx="38.120023" cy="5.82002299" r="5.82002299"></circle>
                <circle id="Oval" stroke="#E1B6A5" stroke-width="4" cx="5.82002299" cy="60.920023" r="5.82002299"></circle>
            </g>
        </g>
    </g>
</svg>