<?xml version="1.0" encoding="UTF-8"?>
<svg width="51px" height="67px" viewBox="0 0 51 67" version="1.1" xmlns="http://www.w3.org/2000/svg" xmlns:xlink="http://www.w3.org/1999/xlink">
    <!-- Generator: sketchtool 59.1 (101010) - https://sketch.com -->
    <title>FE76F13E-5190-4A6D-8482-FDA106EA4166</title>
    <desc>Created with sketchtool.</desc>
    <g id="Page-1" stroke="none" stroke-width="1" fill="none" fill-rule="evenodd">
        <g id="GLOWOASIS-D-Home-dev" transform="translate(-868.000000, -1053.000000)" fill="#E1B6A5" fill-rule="nonzero">
            <g id="noun_leaf_2835676" transform="translate(868.387003, 1053.310306)">
                <path d="M50.3850984,1.42677049 C50.064377,0.56895082 49.2439016,0 48.3278689,0 C30.4619344,0 15.461623,5.88721311 7.17229508,16.1535902 C0.680983607,24.1902951 -1.45972131,34.4270164 0.979737705,45.7533115 L5.27432787,44.8284918 C3.1237377,34.8432951 4.96129508,25.8817705 10.5892951,18.9126721 C17.3068689,10.5936885 29.1471967,5.47422951 43.5247377,4.54501639 C40.6239672,9.43931148 40.6624098,15.3001639 40.6986557,21.010541 C40.775541,33.1111803 40.8337541,44.5495082 15.6878852,50.2565902 C16.832377,38.0527049 22.3494426,27.162459 30.5157541,22.8766557 L28.4739016,18.9873607 C13.5812295,26.8021967 8.5452459,49.2164426 12.2807705,66.369541 L16.5731639,65.4337377 C15.8076066,61.9167869 15.4561311,58.3328361 15.4693115,54.8027049 C45.2535574,48.4245246 45.1722787,33.2210164 45.0931967,20.983082 C45.0481639,14.015082 45.0097213,7.9982623 49.7711148,3.85304918 C50.4608852,3.2522459 50.7058197,2.28459016 50.3850984,1.42677049 Z" id="Path"></path>
            </g>
        </g>
    </g>
</svg>