<?xml version="1.0" encoding="UTF-8"?>
<svg width="77px" height="72px" viewBox="0 0 77 72" version="1.1" xmlns="http://www.w3.org/2000/svg" xmlns:xlink="http://www.w3.org/1999/xlink">
    <!-- Generator: sketchtool 59.1 (101010) - https://sketch.com -->
    <title>944D0219-06E2-4FFA-9FFD-44562A7CEE66</title>
    <desc>Created with sketchtool.</desc>
    <g id="Page-1" stroke="none" stroke-width="1" fill="none" fill-rule="evenodd">
        <g id="GLOWOASIS-D-Home-dev" transform="translate(-1416.000000, -1048.000000)" fill="#E1B6A5" fill-rule="nonzero" stroke="#E1B6A5" stroke-width="2.5">
            <g id="noun_sparkling_2960771" transform="translate(1417.387003, 1048.200000)">
                <g id="Group" transform="translate(0.000000, 0.807818)">
                    <path d="M54.2488063,40.9458628 C53.8213285,40.9628803 53.4482738,41.2409038 53.3097804,41.6456833 L51.5172624,46.8019282 C50.6407861,49.3210802 48.6596065,51.3005733 46.139709,52.1749038 L40.9836193,53.9674244 C40.5652317,54.1112085 40.2843092,54.5047996 40.2843092,54.9472045 C40.2843092,55.3896094 40.5652317,55.7832005 40.9836193,55.9269846 L46.139709,57.7149821 C48.6605944,58.5902684 50.6419504,60.5716043 51.5172624,63.0924808 L53.3097804,68.2487256 C53.4555076,68.6637557 53.8474259,68.9415194 54.2872968,68.9415194 C54.7271677,68.9415194 55.1190859,68.6637557 55.2648132,68.2487256 L57.0573312,63.0924808 C57.9316665,60.5726137 59.9111396,58.5914581 62.4302628,57.7149821 L67.5909742,55.9269846 C68.0093619,55.7832005 68.2902844,55.3896094 68.2902844,54.9472045 C68.2902844,54.5047996 68.0093619,54.1112085 67.5909742,53.9674244 L62.4302628,52.1749038 C59.9121274,51.2993839 57.9328305,49.3200708 57.0573312,46.8019282 L55.2648132,41.6456833 C55.1170894,41.2142132 54.7045912,40.9300865 54.2488063,40.9458628 L54.2488063,40.9458628 Z M54.2903935,43.9755077 L55.4598991,47.3528013 C56.504694,50.3627353 58.8703629,52.7284526 61.8802755,53.773309 L65.2577136,54.9471731 L61.8802755,56.1211 C58.8713511,57.1650009 56.5058587,59.5288752 55.4598991,62.5370846 L54.2903935,65.9189013 L53.1121031,62.5370846 C52.0670768,59.5298399 49.7033837,57.1661378 46.6961429,56.1211 L43.3143087,54.9471731 L46.6961429,53.773309 C49.7043808,52.7273215 52.06826,50.3617757 53.1121269,47.3528013 L54.2903935,43.9755077 Z" id="Shape"></path>
                    <path d="M56.4387112,0.251237179 C55.992105,0.267449003 55.6012366,0.556116006 55.4543753,0.978196154 L53.2149993,7.42571667 C52.0995566,10.6362508 49.5760972,13.1597145 46.3655651,14.2751628 L39.9225337,16.5146513 C39.488324,16.6670937 39.1977185,17.0771143 39.1977185,17.5373064 C39.1977185,17.9974986 39.488324,18.4075191 39.9225337,18.5599615 L46.3655651,20.79945 C49.5760972,21.9148983 52.0995566,24.4383621 53.2149993,27.6488962 L55.4543753,34.0964795 C55.6067709,34.530771 56.0168323,34.8214531 56.477086,34.8214531 C56.9373398,34.8214531 57.3474012,34.530771 57.4997968,34.0964795 L59.7391721,27.6488962 C60.8555913,24.4373524 63.3809334,21.9137085 66.5932274,20.79945 L73.0408862,18.5599615 C73.4750959,18.4075191 73.7657013,17.9974986 73.7657013,17.5373064 C73.7657013,17.0771143 73.4750959,16.6670937 73.0408862,16.5146513 L66.5932274,14.2751628 C63.3809334,13.1609043 60.8555913,10.6372604 59.7391721,7.42571667 L57.4997968,0.978196154 C57.3436474,0.529515221 56.9135034,0.234819875 56.4387112,0.251237179 L56.4387112,0.251237179 Z M56.4802984,3.17703974 L58.1463643,7.97658974 C59.4313544,11.6762069 62.3392167,14.5840352 66.038849,15.8689821 L70.8382419,17.5350449 L66.038849,19.2056308 C62.3392167,20.4905776 59.4313544,23.3984059 58.1463643,27.0980231 L56.4802984,31.89305 L54.8096088,27.0980231 C53.525595,23.3994149 50.6196148,20.4917667 46.921744,19.2056308 L42.1223554,17.5350449 L46.921744,15.8689821 C50.6196148,14.5828461 53.525595,11.675198 54.8096088,7.97658974 L56.4802984,3.17703974 Z" id="Shape"></path>
                    <path d="M24.2686331,13.0063769 C23.7835587,13.0261451 23.3604044,13.3417518 23.2031551,13.8010564 L20.0966481,22.7500269 C18.5156453,27.3062448 14.9356836,30.8878741 10.3802025,32.4709987 L1.42662917,35.5774103 C0.951365358,35.7407333 0.632251752,36.1878262 0.632251752,36.6903699 C0.632251752,37.1929135 0.951365358,37.6400065 1.42662917,37.8033295 L10.3802025,40.909741 C14.9356973,42.4928789 18.5156614,46.0745338 20.0966481,50.6307756 L23.2031551,59.5796833 C23.366457,60.0549833 23.813568,60.3741311 24.3161389,60.3741311 C24.8187099,60.3741311 25.2658209,60.0549833 25.4291227,59.5796833 L28.5400222,50.6307756 C30.1200319,46.0755436 33.6981123,42.494069 38.2518442,40.909741 L47.2054175,37.8033295 C47.6806813,37.6400065 47.999795,37.1929135 47.999795,36.6903699 C47.999795,36.1878262 47.6806813,35.7407333 47.2054175,35.5774103 L38.2518442,32.4709987 C33.698126,30.886684 30.120048,27.305235 28.5400222,22.7500269 L25.4291227,13.8010564 C25.2605461,13.3087139 24.7886191,12.9855479 24.2686331,13.0063769 Z M24.3171934,15.7470474 L26.9449403,23.3053603 C28.6956465,28.3479756 32.6579575,32.3119976 37.6998164,34.0648808 L45.2582587,36.6926 L37.6998164,39.3159218 C32.6579712,41.0687917 28.6956627,45.0327881 26.9449403,50.0753795 L24.3171934,57.6336923 L21.6894459,50.0753795 C19.9386748,45.0327378 15.9762723,41.0687324 10.9343391,39.3159218 L3.37150406,36.6926 L10.9343391,34.0648808 C15.976286,32.3120569 19.9386909,28.3480259 21.6894459,23.3053603 L24.3171934,15.7470474 Z" id="Shape"></path>
                </g>
            </g>
        </g>
    </g>
</svg>