<?xml version="1.0" encoding="UTF-8"?>
<svg width="58px" height="58px" viewBox="0 0 58 58" version="1.1" xmlns="http://www.w3.org/2000/svg" xmlns:xlink="http://www.w3.org/1999/xlink">
    <!-- Generator: sketchtool 59.1 (101010) - https://sketch.com -->
    <title>9B5CFF5E-480F-44B9-B54E-58B738E6BF1E</title>
    <desc>Created with sketchtool.</desc>
    <g id="Page-1" stroke="none" stroke-width="1" fill="none" fill-rule="evenodd">
        <g id="GLOWOASIS-D-Home-dev" transform="translate(-1687.000000, -1052.000000)" fill="#E1B6A5" fill-rule="nonzero" stroke="#E1B6A5" stroke-width="2">
            <path d="M1699.84534,1053.81031 C1697.89831,1053.81031 1696.40784,1055.30078 1696.40784,1057.24781 L1696.40784,1070.42489 C1693.27917,1069.45809 1690.32507,1068.70614 1688.387,1068.70614 L1688.387,1070.99781 C1690.2266,1070.99781 1693.25679,1071.8348 1696.40784,1072.82398 L1696.40784,1079.59156 C1693.27917,1078.62476 1690.32507,1077.87281 1688.387,1077.87281 L1688.387,1080.16447 C1690.2266,1080.16447 1693.25679,1081.00147 1696.40784,1081.99064 L1696.40784,1088.75822 C1693.27917,1087.79143 1690.32507,1087.03947 1688.387,1087.03947 L1688.387,1089.33114 C1690.2266,1089.33114 1693.25679,1090.16813 1696.40784,1091.15731 L1696.40784,1105.37281 C1696.40784,1107.31983 1697.89831,1108.81031 1699.84534,1108.81031 L1731.92867,1108.81031 C1733.87569,1108.81031 1735.36617,1107.31983 1735.36617,1105.37281 L1735.36617,1094.59481 L1733.0745,1093.91447 L1733.0745,1105.37281 C1733.0745,1106.0621 1732.61796,1106.51864 1731.92867,1106.51864 L1699.84534,1106.51864 C1699.15605,1106.51864 1698.6995,1106.0621 1698.6995,1105.37281 L1698.6995,1057.24781 C1698.6995,1056.55852 1699.15605,1056.10197 1699.84534,1056.10197 L1731.92867,1056.10197 C1732.61796,1056.10197 1733.0745,1056.55852 1733.0745,1057.24781 L1733.0745,1070.81877 C1729.53406,1069.68189 1726.22636,1068.70614 1723.90784,1068.70614 C1721.3879,1068.70614 1718.29504,1069.95939 1715.31409,1071.10523 C1712.56588,1072.13469 1709.81319,1073.28947 1707.86617,1073.28947 C1706.26379,1073.28947 1703.73938,1072.58675 1700.99117,1071.78557 L1700.99117,1074.22046 C1703.73938,1075.02165 1706.14742,1075.58114 1707.86617,1075.58114 C1710.27421,1075.58114 1713.12089,1074.43531 1716.10185,1073.28947 C1718.85006,1072.14364 1721.73254,1070.99781 1723.90784,1070.99781 C1726.08313,1070.99781 1729.73547,1072.14364 1733.28935,1073.28947 C1737.18339,1074.43531 1740.86706,1075.58114 1743.387,1075.58114 L1743.387,1073.28947 C1741.58769,1073.28947 1738.48588,1072.40772 1735.36617,1071.49911 L1735.36617,1057.24781 C1735.36617,1055.30078 1733.87569,1053.81031 1731.92867,1053.81031 L1699.84534,1053.81031 Z M1723.90784,1077.87281 C1721.3879,1077.87281 1718.29504,1079.12606 1715.31409,1080.27189 C1712.56588,1081.30135 1709.81319,1082.45614 1707.86617,1082.45614 C1706.26379,1082.45614 1703.73938,1081.75342 1700.99117,1080.95223 L1700.99117,1083.38713 C1703.73938,1084.18832 1706.14742,1084.74781 1707.86617,1084.74781 C1710.27421,1084.74781 1713.12089,1083.60197 1716.10185,1082.45614 C1718.85006,1081.31031 1721.73254,1080.16447 1723.90784,1080.16447 C1726.08313,1080.16447 1729.73547,1081.31031 1733.28935,1082.45614 C1737.18339,1083.60197 1740.86706,1084.74781 1743.387,1084.74781 L1743.387,1082.45614 C1741.32361,1082.45614 1737.55937,1081.30135 1734.00549,1080.27189 C1730.11145,1079.00969 1726.42777,1077.87281 1723.90784,1077.87281 Z M1723.90784,1087.03947 C1721.3879,1087.03947 1718.29504,1088.29273 1715.31409,1089.43856 C1712.56588,1090.46802 1709.81319,1091.62281 1707.86617,1091.62281 C1706.26379,1091.62281 1703.73938,1090.92009 1700.99117,1090.1189 L1700.99117,1092.5538 C1703.73938,1093.35498 1706.14742,1093.91447 1707.86617,1093.91447 C1710.27421,1093.91447 1713.12089,1092.76864 1716.10185,1091.62281 C1718.85006,1090.47697 1721.73254,1089.33114 1723.90784,1089.33114 C1726.65605,1089.33114 1730.08012,1090.59335 1733.28935,1091.62281 C1737.18339,1092.76864 1740.86706,1093.91447 1743.387,1093.91447 L1743.387,1091.62281 C1741.32361,1091.62281 1737.55937,1090.46802 1734.00549,1089.43856 C1730.11145,1088.17635 1726.42777,1087.03947 1723.90784,1087.03947 Z" id="Shape"></path>
        </g>
    </g>
</svg>